<svg width="97" height="25" viewBox="0 0 97 25" fill="none" xmlns="http://www.w3.org/2000/svg">
<g id="google-play-4 1" clip-path="url(#clip0_6_34)">
<g id="Group">
<path id="Vector" fill-rule="evenodd" clip-rule="evenodd" d="M1.26319 1.84103C1.01078 2.11231 0.865707 2.52984 0.865707 3.0724V22.371C0.865707 22.9136 1.01078 23.3311 1.27263 23.5929L1.34104 23.6507L12.1545 12.8373V12.5943L1.3316 1.78323L1.26319 1.84103Z" fill="url(#paint0_linear_6_34)"/>
<path id="Vector_2" fill-rule="evenodd" clip-rule="evenodd" d="M15.7521 16.4561L12.1453 12.8481V12.5957L15.7533 8.98767L15.8311 9.03603L20.0985 11.461C21.3204 12.1498 21.3204 13.2845 20.0985 13.9828L15.8311 16.4078C15.83 16.4078 15.7521 16.4561 15.7521 16.4561Z" fill="url(#paint1_linear_6_34)"/>
<path id="Vector_3" fill-rule="evenodd" clip-rule="evenodd" d="M15.8299 16.4076L12.1452 12.7217L1.26338 23.6036C1.66087 24.0306 2.32963 24.0789 3.07742 23.6614L15.8299 16.4076Z" fill="url(#paint2_linear_6_34)"/>
<path id="Vector_4" fill-rule="evenodd" clip-rule="evenodd" d="M15.8299 9.03732L3.07742 1.79298C2.33081 1.36601 1.66087 1.4238 1.26338 1.85077L12.1441 12.722L15.8299 9.03732Z" fill="url(#paint3_linear_6_34)"/>
<path id="Vector_5" opacity="0.2" fill-rule="evenodd" clip-rule="evenodd" d="M15.7523 16.3297L3.08708 23.5257C2.37939 23.9326 1.74837 23.9043 1.34145 23.5351L1.27304 23.6035L1.34145 23.6613C1.74837 24.0293 2.37939 24.0588 3.08708 23.6519L15.8396 16.4076L15.7523 16.3297Z" fill="black"/>
<path id="Vector_6" opacity="0.12" fill-rule="evenodd" clip-rule="evenodd" d="M20.0977 13.8564L15.7431 16.3298L15.821 16.4076L20.0883 13.9826C20.6993 13.6335 21 13.1782 21 12.7217C20.9611 13.1393 20.6509 13.5368 20.0977 13.8564Z" fill="black"/>
<path id="Vector_7" opacity="0.25" fill-rule="evenodd" clip-rule="evenodd" d="M3.07721 1.91849L20.0971 11.5878C20.6502 11.898 20.9604 12.305 21.0088 12.7225C21.0088 12.2672 20.708 11.8108 20.0971 11.4616L3.07721 1.79229C1.85527 1.09404 0.865692 1.67552 0.865692 3.07202V3.19823C0.865692 1.80172 1.85527 1.22968 3.07721 1.91849Z" fill="white"/>
<g id="Group_2">
<path id="Vector_8" fill-rule="evenodd" clip-rule="evenodd" d="M25.1633 12.1098C25.1633 9.01835 27.7617 6.50134 30.8531 6.50134C32.5621 6.50134 33.7782 7.17247 34.6958 8.04646L33.6154 9.12686C32.9596 8.51117 32.0703 8.03348 30.8519 8.03348C28.5944 8.03348 26.8299 9.85106 26.8299 12.1086C26.8299 14.3661 28.5944 16.186 30.8507 16.186C32.3145 16.186 33.1472 15.5986 33.6815 15.0632C34.1191 14.6256 34.4057 13.9969 34.5165 13.1347H30.8531V11.6061H36.0098C36.064 11.8798 36.0923 12.2077 36.0923 12.5627C36.0923 13.7103 35.7774 15.1339 34.7642 16.1471C33.7782 17.1732 32.5209 17.7205 30.8519 17.7205C27.7593 17.7205 25.1609 15.2059 25.1609 12.1121L25.1633 12.1098ZM40.2606 10.4962C38.2637 10.4962 36.6337 12.0154 36.6337 14.1066C36.6337 16.1872 38.2626 17.717 40.2606 17.717C42.2586 17.717 43.8851 16.1848 43.8851 14.1054C43.8851 12.0142 42.2574 10.4951 40.2606 10.4962ZM40.2606 16.2969C39.1672 16.2969 38.2225 15.3946 38.2225 14.1078C38.2225 12.808 39.166 11.9187 40.2606 11.9187C41.354 11.9187 42.2975 12.8068 42.2975 14.1078C42.2975 15.3934 41.3551 16.2969 40.2606 16.2969ZM48.169 10.4962C46.1721 10.4962 44.5445 12.0154 44.5445 14.1066C44.5445 16.1872 46.1721 17.717 48.169 17.717C50.1658 17.717 51.7935 16.1848 51.7935 14.1054C51.7935 12.0142 50.167 10.4951 48.169 10.4962ZM48.169 16.2969C47.0756 16.2969 46.1308 15.3946 46.1308 14.1078C46.1308 12.808 47.0744 11.9187 48.169 11.9187C49.2624 11.9187 50.2071 12.8068 50.2071 14.1078C50.2071 15.3934 49.2624 16.2969 48.169 16.2969ZM57.8749 10.7156V11.303H57.8206C57.4656 10.8772 56.7815 10.4951 55.9205 10.4951C54.1147 10.4951 52.4576 12.0826 52.4576 14.1219C52.4576 16.1447 54.1135 17.7193 55.9205 17.7193C56.7815 17.7193 57.4656 17.3372 57.8206 16.8996H57.8749V17.4186C57.8749 18.7997 57.1365 19.5393 55.9464 19.5393C54.9746 19.5393 54.373 18.841 54.1265 18.2548L52.7442 18.8292C53.1405 19.7858 54.1949 20.9629 55.9453 20.9629C57.8041 20.9629 59.3775 19.8672 59.3775 17.2004V10.7144L57.8749 10.7156ZM56.0561 16.2969C54.9628 16.2969 54.044 15.3793 54.044 14.1219C54.044 12.8505 54.9616 11.9199 56.0561 11.9199C57.1365 11.9199 57.9846 12.8493 57.9846 14.1219C57.9858 15.3793 57.1377 16.2969 56.0561 16.2969ZM60.4733 6.88467H62.0609V17.5H60.4733V6.88467ZM66.4119 16.2969C65.6052 16.2969 65.0296 15.9265 64.6628 15.2035L69.4916 13.2043L69.3253 12.7939C69.0257 11.9883 68.108 10.4962 66.2338 10.4962C64.3738 10.4962 62.8275 11.96 62.8275 14.1078C62.8275 16.1306 64.3597 17.7182 66.4119 17.7182C68.0679 17.7182 69.0257 16.7074 69.422 16.1176L68.1906 15.2979C67.779 15.9006 67.2175 16.2981 66.4119 16.2969ZM66.2881 11.8916C66.9168 11.8916 67.4499 12.2065 67.628 12.657L64.3986 13.9981C64.3585 12.6028 65.4802 11.8916 66.2881 11.8916ZM76.4575 6.88467H72.662V17.5H74.246V13.4791H76.4587C78.215 13.4791 79.9417 12.2077 79.9417 10.1813C79.9417 8.15851 78.2162 6.88585 76.4611 6.88585L76.4575 6.88467ZM76.4988 12.0012H74.246V8.36138H76.4988C77.683 8.36138 78.3577 9.34388 78.3577 10.1813C78.3577 11.0046 77.683 12.0012 76.4988 12.0012ZM82.3986 17.5V6.88467H80.8145V17.5H82.3986ZM89.5144 17.4811V13.4119C89.5144 11.5271 88.1061 10.4762 86.2885 10.4762C85.1432 10.4762 83.9555 10.9822 83.4636 12.1015L84.8696 12.6877C85.1703 12.1015 85.7294 11.9092 86.318 11.9092C87.1365 11.9092 87.9692 12.4011 87.9822 13.2763V13.3859C87.6956 13.222 87.0823 12.9755 86.3298 12.9755C84.8141 12.9755 83.2714 13.8082 83.2714 15.3651C83.2714 16.7864 84.5145 17.7005 85.9075 17.7005C86.9738 17.7005 87.56 17.2228 87.928 16.6637H87.9822V17.4834H89.5132L89.5144 17.4811ZM86.0998 16.2945C85.5808 16.2945 84.8566 16.0351 84.8566 15.3946C84.8566 14.5749 85.7589 14.2588 86.5374 14.2588C87.2344 14.2588 87.5611 14.4086 87.9858 14.6138C87.8643 15.5668 87.0587 16.2827 86.0998 16.2945ZM95.085 10.7085L93.2686 15.3097H93.2144L91.3296 10.7085H89.6229L92.4489 17.1414L90.8365 20.7188H92.489L96.8448 10.7085H95.085Z" fill="#808285"/>
</g>
</g>
</g>
<defs>
<linearGradient id="paint0_linear_6_34" x1="11.1835" y1="2.86496" x2="-6.13779" y2="7.48023" gradientUnits="userSpaceOnUse">
<stop stop-color="#00A0FF"/>
<stop offset="0.007" stop-color="#00A1FF"/>
<stop offset="0.26" stop-color="#00BEFF"/>
<stop offset="0.512" stop-color="#00D2FF"/>
<stop offset="0.76" stop-color="#00DFFF"/>
<stop offset="1" stop-color="#00E3FF"/>
</linearGradient>
<linearGradient id="paint1_linear_6_34" x1="21.6886" y1="12.7224" x2="0.568964" y2="12.7224" gradientUnits="userSpaceOnUse">
<stop stop-color="#FFE000"/>
<stop offset="0.409" stop-color="#FFBD00"/>
<stop offset="0.775" stop-color="#FFA500"/>
<stop offset="1" stop-color="#FF9C00"/>
</linearGradient>
<linearGradient id="paint2_linear_6_34" x1="13.8263" y1="14.7269" x2="-0.0792821" y2="38.1309" gradientUnits="userSpaceOnUse">
<stop stop-color="#FF3A44"/>
<stop offset="1" stop-color="#C31162"/>
</linearGradient>
<linearGradient id="paint3_linear_6_34" x1="-1.47585" y1="-4.57833" x2="4.72785" y2="5.87427" gradientUnits="userSpaceOnUse">
<stop stop-color="#32A071"/>
<stop offset="0.069" stop-color="#2DA771"/>
<stop offset="0.476" stop-color="#15CF74"/>
<stop offset="0.801" stop-color="#06E775"/>
<stop offset="1" stop-color="#00F076"/>
</linearGradient>
<clipPath id="clip0_6_34">
<rect width="95.9787" height="23.3804" fill="white" transform="translate(0.865677 0.896088)"/>
</clipPath>
</defs>
</svg>
