<svg width="48" height="48" viewBox="0 0 48 48" fill="none" xmlns="http://www.w3.org/2000/svg">
<g id="Icons/SharePosts" clip-path="url(#clip0_122_580)">
<path id="Vector" d="M47.8 3.8C47.5 3.3 47 3 46.5 3H1.5C0.9 3.1 0.3 3.5 0.1 4C-0.1 4.5 0 5.2 0.4 5.7L16.3 21.3L21.8 43.9C21.9 44.5 22.4 44.9 23 45H23.2C23.7 45 24.2 44.7 24.5 44.3L47.7 5.3C48.1 4.9 48.1 4.3 47.8 3.8ZM5.2 6.1H40.7L18 18.7L5.2 6.1ZM23.9 39.7L19.5 21.3L42.4 8.6L23.9 39.7Z" fill="#262626"/>
</g>
<defs>
<clipPath id="clip0_122_580">
<rect width="48" height="48" fill="white"/>
</clipPath>
</defs>
</svg>
